<?xml version="1.0" encoding="UTF-8" standalone="no"?>
<!DOCTYPE svg PUBLIC "-//W3C//DTD SVG 1.1//EN" "http://www.w3.org/Graphics/SVG/1.1/DTD/svg11.dtd">
<svg width="100%" height="100%" viewBox="0 0 1101 971" version="1.1" xmlns="http://www.w3.org/2000/svg" xmlns:xlink="http://www.w3.org/1999/xlink" xml:space="preserve" xmlns:serif="http://www.serif.com/" style="fill-rule:evenodd;clip-rule:evenodd;stroke-linejoin:round;stroke-miterlimit:1.41421;">
    <g transform="matrix(1,0,0,1,-1130.54,-769.471)">
        <g transform="matrix(4.16667,0,0,4.16667,42.1408,46.3548)">
            <g transform="matrix(4.7817,0,0,4.7817,195.199,141.912)">
                <path d="M13.806,22.161C13.806,21.241 14.552,20.503 15.473,20.503C15.912,20.503 16.302,20.677 16.601,20.951C16.593,20.802 16.584,20.661 16.584,20.512C16.584,17.436 19.071,14.948 22.148,14.948C22.944,14.948 23.698,15.114 24.387,15.421C24.379,15.263 24.37,15.106 24.37,14.957C24.37,10.347 28.101,6.616 32.711,6.616C37.288,6.616 41.002,10.306 41.052,14.874C39.543,16.201 38.341,17.875 37.57,19.766C36.078,18.837 34.32,18.282 32.438,18.282C28.558,18.282 25.208,20.488 23.641,23.821L17.695,23.821L15.473,23.821C14.552,23.803 13.806,23.082 13.806,22.161ZM57.726,17.178C55.661,15.113 52.817,13.837 49.667,13.837C43.921,13.837 39.162,18.091 38.382,23.629C36.964,21.739 34.701,20.511 32.155,20.511C27.852,20.511 24.369,24.002 24.369,28.297C24.369,29.549 24.667,30.726 25.19,31.779C22.487,32.326 20.48,34.424 20.48,36.92C20.48,39.839 23.216,42.202 26.599,42.202C28.091,42.202 47.992,42.203 51.069,42.203C51.202,42.203 51.343,42.195 51.475,42.186L51.467,42.169L51.625,42.152L62.545,42.152L62.545,42.193C65.886,42.044 69.045,38.968 69.045,35.22C69.045,31.381 65.762,28.247 61.923,28.247C61.915,28.247 61.915,28.247 61.906,28.247C61.284,29.358 60.53,30.005 59.676,30.701C60.571,29.068 61.086,27.21 61.086,25.22C61.067,22.079 59.79,19.243 57.726,17.178Z" style="fill:url(#_Linear1);fill-rule:nonzero;"/>
            </g>
        </g>
        <g transform="matrix(4.16667,0,0,4.16667,42.1408,46.3548)">
            <g transform="matrix(1.16304,0,0,1.16304,149.719,-378.476)">
                <path d="M189.968,562.893C190.686,564.377 185.233,563.473 180.219,565.896C175.204,568.321 172.526,573.156 171.81,571.672C171.092,570.188 174.349,565.923 179.363,563.498C184.377,561.075 189.25,561.409 189.968,562.893Z" style="fill:rgb(74,106,103);fill-rule:nonzero;"/>
            </g>
        </g>
        <g transform="matrix(4.16667,0,0,4.16667,42.1408,46.3548)">
            <g transform="matrix(1.16304,0,0,1.16304,149.719,-378.476)">
                <path d="M255.876,559.364C255.159,560.849 260.611,559.944 265.625,562.368C270.64,564.793 273.318,569.627 274.035,568.144C274.752,566.659 271.496,562.395 266.48,559.97C261.467,557.547 256.594,557.881 255.876,559.364Z" style="fill:rgb(74,106,103);fill-rule:nonzero;"/>
            </g>
        </g>
        <g transform="matrix(4.16667,0,0,4.16667,42.1408,46.3548)">
            <g transform="matrix(1.16304,0,0,1.16304,149.719,-378.476)">
                <path d="M259.111,599.37C259.111,607.165 240.58,593.219 224.572,593.219C208.563,593.219 190.031,607.165 190.031,599.37C190.031,591.576 208.422,576.077 224.43,576.077C240.438,576.077 259.111,591.576 259.111,599.37Z" style="fill:rgb(54,81,79);fill-rule:nonzero;"/>
            </g>
        </g>
        <g transform="matrix(4.16667,0,0,4.16667,42.1408,46.3548)">
            <g transform="matrix(1.16304,0,0,1.16304,149.719,-378.476)">
                <path d="M186.373,594.666C186.373,594.666 186.251,594.972 186.072,595.516C185.887,596.058 185.67,596.848 185.476,597.803C185.289,598.755 185.156,599.897 185.291,601.085C185.356,601.676 185.49,602.282 185.762,602.834C186.026,603.387 186.406,603.888 186.882,604.286C187.369,604.668 187.917,604.984 188.511,605.179C189.098,605.388 189.711,605.496 190.308,605.572C191.508,605.691 192.65,605.669 193.624,605.583C194.111,605.547 194.555,605.479 194.953,605.441C195.35,605.407 195.691,605.337 195.975,605.295C196.543,605.21 196.868,605.161 196.868,605.161C196.868,605.161 196.55,605.244 195.994,605.391C195.714,605.456 195.378,605.556 194.983,605.625C194.589,605.697 194.147,605.807 193.655,605.862C192.675,605.99 191.515,606.11 190.264,606.004C189.641,605.936 188.995,605.833 188.36,605.62C187.722,605.423 187.11,605.091 186.563,604.67C186.037,604.216 185.619,603.645 185.339,603.029C185.05,602.414 184.919,601.757 184.86,601.129C184.738,599.863 184.972,598.701 185.202,597.741C185.445,596.777 185.757,596.011 185.982,595.481C186.211,594.953 186.373,594.666 186.373,594.666Z" style="fill:rgb(74,106,103);fill-rule:nonzero;"/>
            </g>
        </g>
        <g transform="matrix(4.16667,0,0,4.16667,42.1408,46.3548)">
            <g transform="matrix(1.16304,0,0,1.16304,149.719,-378.476)">
                <path d="M251.351,604.522C251.351,604.522 251.657,604.643 252.201,604.821C252.743,605.006 253.533,605.221 254.489,605.414C255.442,605.599 256.584,605.729 257.771,605.592C258.362,605.525 258.969,605.391 259.519,605.117C260.071,604.852 260.571,604.471 260.969,603.994C261.351,603.507 261.665,602.959 261.859,602.364C262.066,601.776 262.175,601.163 262.249,600.565C262.366,599.365 262.342,598.224 262.254,597.25C262.217,596.763 262.147,596.318 262.109,595.922C262.075,595.523 262.004,595.183 261.961,594.899C261.875,594.331 261.825,594.007 261.825,594.007C261.825,594.007 261.91,594.324 262.057,594.88C262.124,595.159 262.224,595.496 262.294,595.891C262.367,596.285 262.477,596.727 262.534,597.218C262.663,598.197 262.785,599.357 262.681,600.609C262.614,601.232 262.512,601.879 262.301,602.514C262.104,603.152 261.773,603.765 261.354,604.313C260.901,604.84 260.331,605.258 259.715,605.54C259.101,605.829 258.444,605.963 257.816,606.022C256.551,606.146 255.389,605.915 254.428,605.688C253.463,605.446 252.696,605.135 252.167,604.912C251.638,604.683 251.351,604.522 251.351,604.522Z" style="fill:rgb(74,106,103);fill-rule:nonzero;"/>
            </g>
        </g>
        <g transform="matrix(4.16667,0,0,4.16667,42.1408,46.3548)">
            <g transform="matrix(1.16304,0,0,1.16304,149.719,-378.476)">
                <path d="M188.896,563.338C188.896,563.337 188.754,563.416 188.543,563.547C188.317,563.692 188.003,563.916 187.638,564.209C187.276,564.508 186.88,564.885 186.474,565.313C186.286,565.54 186.09,565.774 185.892,566.013C185.707,566.261 185.537,566.527 185.355,566.787C185.182,567.016 185.045,567.344 184.891,567.612C184.742,567.895 184.595,568.172 184.453,568.44C184.156,568.973 184.012,569.508 183.818,569.953C183.64,570.401 183.567,570.801 183.48,571.07C183.412,571.345 183.388,571.506 183.388,571.506C183.388,571.506 183.396,571.344 183.438,571.063C183.498,570.787 183.533,570.377 183.669,569.907C183.818,569.445 183.923,568.862 184.166,568.306C184.282,568.025 184.401,567.735 184.523,567.44C184.658,567.143 184.739,566.853 184.921,566.539C185.083,566.251 185.235,565.954 185.405,565.675C185.589,565.403 185.771,565.137 185.947,564.879C186.331,564.385 186.714,563.941 187.071,563.584C187.432,563.232 187.752,562.954 187.987,562.769C188.239,562.575 188.373,562.485 188.374,562.484L188.896,563.338Z" style="fill:rgb(74,106,103);fill-rule:nonzero;"/>
            </g>
        </g>
        <g transform="matrix(4.16667,0,0,4.16667,42.1408,46.3548)">
            <g transform="matrix(1.16304,0,0,1.16304,149.719,-378.476)">
                <path d="M257.542,559.399C257.543,559.4 257.677,559.49 257.928,559.684C258.164,559.869 258.484,560.147 258.845,560.5C259.202,560.856 259.584,561.3 259.97,561.794C260.144,562.052 260.327,562.318 260.51,562.59C260.681,562.869 260.833,563.166 260.995,563.454C261.177,563.768 261.258,564.058 261.393,564.355C261.515,564.65 261.634,564.94 261.75,565.221C261.993,565.777 262.099,566.36 262.248,566.822C262.384,567.292 262.418,567.702 262.479,567.978C262.52,568.259 262.528,568.421 262.528,568.421C262.528,568.421 262.504,568.26 262.437,567.985C262.35,567.716 262.277,567.316 262.097,566.867C261.903,566.423 261.76,565.888 261.463,565.355C261.321,565.087 261.174,564.81 261.025,564.527C260.871,564.259 260.734,563.932 260.561,563.702C260.379,563.442 260.209,563.176 260.023,562.928C259.825,562.689 259.63,562.455 259.441,562.229C259.036,561.8 258.64,561.423 258.278,561.125C257.913,560.831 257.599,560.607 257.372,560.463C257.161,560.331 257.019,560.252 257.019,560.253L257.542,559.399Z" style="fill:rgb(74,106,103);fill-rule:nonzero;"/>
            </g>
        </g>
        <g transform="matrix(4.16667,0,0,4.16667,42.1408,46.3548)">
            <g transform="matrix(1.70262,0,0,1.70262,56.0224,-687.999)">
                <path d="M174.973,573.632C174.973,573.632 171.988,579.332 174.973,580.01C177.958,580.688 174.973,573.632 174.973,573.632Z" style="fill:rgb(136,204,223);fill-rule:nonzero;"/>
            </g>
        </g>
        <g transform="matrix(4.16667,0,0,4.16667,42.1408,46.3548)">
            <g transform="matrix(1.68184,0,0,1.68184,12.2487,-675.464)">
                <path d="M266.3,578.574C266.3,578.574 263.315,584.274 266.3,584.953C269.286,585.631 266.3,578.574 266.3,578.574Z" style="fill:rgb(136,204,223);fill-rule:nonzero;"/>
            </g>
        </g>
        <g transform="matrix(4.16667,0,0,4.16667,42.1408,46.3548)">
            <g transform="matrix(1.62904,0,0,1.62904,25.0536,-657.734)">
                <path d="M268.849,599.265C268.849,599.265 271.834,604.964 268.849,605.643C265.864,606.321 268.849,599.265 268.849,599.265Z" style="fill:rgb(136,204,223);fill-rule:nonzero;"/>
            </g>
        </g>
        <g transform="matrix(4.16667,0,0,4.16667,42.1408,46.3548)">
            <g transform="matrix(1.70722,0,0,1.70722,3.41517,-688.89)">
                <path d="M270.177,570.42C270.177,570.42 273.162,576.119 270.177,576.798C267.191,577.477 270.177,570.42 270.177,570.42Z" style="fill:rgb(136,204,223);fill-rule:nonzero;"/>
            </g>
        </g>
        <g transform="matrix(4.16667,0,0,4.16667,42.1408,46.3548)">
            <g transform="matrix(2.00765,0,0,2.00765,0.813261,-886.715)">
                <path d="M174.973,601.738C174.973,601.738 171.988,607.438 174.973,608.116C177.958,608.795 174.973,601.738 174.973,601.738Z" style="fill:rgb(136,204,223);fill-rule:nonzero;"/>
            </g>
        </g>
        <g transform="matrix(4.16667,0,0,4.16667,42.1408,46.3548)">
            <g transform="matrix(1.73779,0,0,1.73779,-9.44679,-728.919)">
                <path d="M278.257,609.729C278.257,609.729 275.272,615.43 278.257,616.108C281.243,616.786 278.257,609.729 278.257,609.729Z" style="fill:rgb(136,204,223);fill-rule:nonzero;"/>
            </g>
        </g>
        <g transform="matrix(4.16667,0,0,4.16667,42.1408,46.3548)">
            <g transform="matrix(1.74869,0,0,1.74869,43.0138,-721.365)">
                <path d="M180.871,585.477C180.871,585.477 183.856,591.176 180.871,591.854C177.886,592.533 180.871,585.477 180.871,585.477Z" style="fill:rgb(136,204,223);fill-rule:nonzero;"/>
            </g>
        </g>
        <g transform="matrix(4.16667,0,0,4.16667,42.1408,46.3548)">
            <g transform="matrix(1.16304,0,0,1.16304,149.719,-378.476)">
                <path d="M283.832,667.882C283.832,667.882 287.184,674.15 283.832,674.896C280.478,675.643 283.832,667.882 283.832,667.882Z" style="fill:rgb(136,204,223);fill-rule:nonzero;"/>
            </g>
        </g>
        <g transform="matrix(4.16667,0,0,4.16667,42.1408,46.3548)">
            <g transform="matrix(1.16304,0,0,1.16304,149.719,-378.476)">
                <path d="M167.835,660.452C167.835,660.452 164.482,666.72 167.835,667.466C171.188,668.211 167.835,660.452 167.835,660.452Z" style="fill:rgb(136,204,223);fill-rule:nonzero;"/>
            </g>
        </g>
        <g transform="matrix(4.16667,0,0,4.16667,42.1408,46.3548)">
            <g transform="matrix(1.65292,0,0,1.65292,13.6585,-697.011)">
                <path d="M279.229,650.22C279.229,650.22 275.875,656.487 279.229,657.233C282.582,657.979 279.229,650.22 279.229,650.22Z" style="fill:rgb(136,204,223);fill-rule:nonzero;"/>
            </g>
        </g>
        <g transform="matrix(4.16667,0,0,4.16667,42.1408,46.3548)">
            <g transform="matrix(1.63159,0,0,1.63159,74.1001,-683.142)">
                <path d="M162.877,643.156C162.877,643.156 159.524,649.423 162.877,650.169C166.231,650.914 162.877,643.156 162.877,643.156Z" style="fill:rgb(136,204,223);fill-rule:nonzero;"/>
            </g>
        </g>
        <g transform="matrix(4.16667,0,0,4.16667,42.1408,46.3548)">
            <g transform="matrix(1.84975,0,0,1.84975,29.5624,-807.58)">
                <path d="M176.301,624.866C176.301,624.866 173.315,630.566 176.301,631.244C179.286,631.923 176.301,624.866 176.301,624.866Z" style="fill:rgb(136,204,223);fill-rule:nonzero;"/>
            </g>
        </g>
        <g transform="matrix(4.16667,0,0,4.16667,42.1408,46.3548)">
            <g transform="matrix(1.64796,0,0,1.64796,10.6378,-682.936)">
                <path d="M285.322,627.853C285.322,627.853 288.674,634.121 285.322,634.866C281.969,635.612 285.322,627.853 285.322,627.853Z" style="fill:rgb(136,204,223);fill-rule:nonzero;"/>
            </g>
        </g>
    </g>
    <defs>
        <linearGradient id="_Linear1" x1="0" y1="0" x2="1" y2="0" gradientUnits="userSpaceOnUse" gradientTransform="matrix(2.17916e-15,35.5884,-35.5884,2.17916e-15,41.422,6.62015)"><stop offset="0" style="stop-color:rgb(250,217,86);stop-opacity:1"/><stop offset="1" style="stop-color:rgb(255,161,15);stop-opacity:1"/></linearGradient>
    </defs>
</svg>
